<svg width="1440" height="1419" viewBox="0 0 1440 1419" fill="none" xmlns="http://www.w3.org/2000/svg">
<g clip-path="url(#clip0_319_4159)">
<rect x="-192" width="1876" height="1419" rx="75.04" fill="white"/>
<path d="M871.88 436.357C936.883 326.705 1050.29 226.621 1238.64 226.621" stroke="#F5F5F5" stroke-width="43.148" stroke-linecap="round" stroke-linejoin="round"/>
<path d="M584.102 67.1538C604.54 64.471 650.892 65.8649 672.785 92.9033" stroke="#F5F5F5" stroke-width="43.148" stroke-linecap="round" stroke-linejoin="round"/>
<path d="M759.728 182.36C773.148 277.452 774.969 466.905 805.751 507.927C852.838 570.679 901.592 506.475 1025.34 418.348C1145.59 332.708 1183.76 330.176 1333 304.381" stroke="#F5F5F5" stroke-width="43.148" stroke-linecap="round" stroke-linejoin="round"/>
<path d="M404.563 517.224C375.82 466.461 329.617 332.58 374.749 203.163C431.164 41.3925 550.558 -82.2341 687.404 -6.01388C797.244 55.1648 821.109 190.096 827.081 204.666" stroke="#F5F5F5" stroke-width="43.148" stroke-linecap="round" stroke-linejoin="round"/>
<path d="M590.397 371.53C616.65 522.56 652.597 849.71 408.528 1068.43C164.46 1287.14 143.48 1443.47 163.498 1494.29" stroke="#F5F5F5" stroke-width="43.148" stroke-linecap="round" stroke-linejoin="round"/>
<path d="M124.068 1238.26C106.227 1179.2 135.257 1116.51 202.01 1095.03" stroke="#F5F5F5" stroke-width="43.148" stroke-linecap="round" stroke-linejoin="round"/>
<path d="M285.514 1061.97C354.255 996.56 493.827 828.234 502.177 678.219C512.616 490.7 427.116 150.033 576.163 150.033C701.726 150.033 692.45 549.202 727.896 620.768C771.049 707.896 835.378 689.765 962.021 583.623C1124.38 447.545 1186.48 426.602 1313.6 400.513" stroke="#F5F5F5" stroke-width="43.148" stroke-linecap="round" stroke-linejoin="round"/>
<path d="M679.214 729.107C703.294 774.042 800.774 836.112 883.687 772.601C987.328 693.211 1149.06 459.072 1488.06 543.081" stroke="#F5F5F5" stroke-width="43.148" stroke-linecap="round" stroke-linejoin="round"/>
<path d="M756.507 1777.6C756.506 1681.18 805.793 1604.82 827.075 1579C989.66 1381.69 1345.2 1354.28 1514.13 1678.46" stroke="#F5F5F5" stroke-width="43.148" stroke-linecap="round" stroke-linejoin="round"/>
<path d="M1367.33 1089.86C1436.65 1157.96 1529.14 1310.76 1377.56 1367.23C1228.39 1422.8 1137.79 1162.93 871.507 1428.01" stroke="#F5F5F5" stroke-width="43.148" stroke-linecap="round" stroke-linejoin="round"/>
<path d="M1363.79 -776.869C1419.43 -723.755 1588.14 -510.347 1413.86 -490.631C1255.69 -472.736 1137.79 -713.067 871.506 -447.991M756.506 -98.3967C756.505 -194.823 805.792 -271.176 827.074 -297.003C989.659 -494.314 1387.78 -504.224 1546.85 -127.308" stroke="#F5F5F5" stroke-width="43.148" stroke-linecap="round" stroke-linejoin="round"/>
<path d="M968.306 2078.98C879.477 2025.33 861.398 1953.04 844.106 1849.76C822.491 1720.65 976.736 1371.42 1342 1635.26C1376.93 1664.1 1407.61 1691.8 1470.59 1821.33" stroke="#F5F5F5" stroke-width="43.148" stroke-linecap="round" stroke-linejoin="round"/>
<path d="M1216.95 145.783C1154.74 166.717 1024.69 157.395 974.622 54.7631C912.04 -73.5267 995.909 -220.768 1168.46 -203.452C1306.5 -189.599 1310.09 -85.0456 1388.55 1.94778C1446.69 66.4102 1483.46 136.573 1629.6 115.843" stroke="#F5F5F5" stroke-width="43.148" stroke-linecap="round" stroke-linejoin="round"/>
<path d="M1367.82 923.395C1512.76 983.267 1641.44 806.273 1717.51 710.331C1793.58 614.388 1971.4 342.822 2172.43 623.561" stroke="#F5F5F5" stroke-width="43.148" stroke-linecap="round" stroke-linejoin="round"/>
<path d="M-508.18 923.395C-363.24 983.267 -234.56 806.273 -158.492 710.331C-82.4237 614.388 95.3949 342.822 296.433 623.561" stroke="#F5F5F5" stroke-width="43.148" stroke-linecap="round" stroke-linejoin="round"/>
<path d="M1485.99 1017.64C1671.06 952.82 1773.66 841.132 1803.43 755.928C1841.13 647.986 1927.89 580.007 1994.7 599.154C2139.28 640.588 2151.42 844.891 1988.69 917.872C1825.95 990.852 1835.39 883.408 1520.69 1191.17" stroke="#F5F5F5" stroke-width="43.148" stroke-linecap="round" stroke-linejoin="round"/>
<path d="M-390.011 1017.64C-204.945 952.821 -102.338 841.132 -72.5742 755.928C-34.8681 647.987 54.8558 594.586 121.668 613.734C266.249 655.168 275.425 844.892 112.687 917.872C-50.0514 990.853 -40.6069 883.409 -355.306 1191.17" stroke="#F5F5F5" stroke-width="43.148" stroke-linecap="round" stroke-linejoin="round"/>
<path d="M2275.39 655.634C2289.14 726.112 2256.86 897.433 2017.78 1018.89C1718.92 1170.72 1517.69 1269.96 1517.69 1421.73" stroke="#F5F5F5" stroke-width="43.148" stroke-linecap="round" stroke-linejoin="round"/>
<path d="M399.392 655.634C413.138 726.112 380.858 897.433 141.776 1018.89C-157.075 1170.72 -358.307 1269.96 -358.307 1421.73" stroke="#F5F5F5" stroke-width="43.148" stroke-linecap="round" stroke-linejoin="round"/>
<path d="M28.149 732.484C44.1886 699.654 96.9046 691.922 115.758 724.886C139.324 766.092 145.024 849.078 -17.2504 863.617" stroke="#F5F5F5" stroke-width="43.148" stroke-linecap="round" stroke-linejoin="round"/>
<path d="M1056.79 -45.0279C1069.02 -106.133 1142.07 -115.989 1177.08 -113.28C1288.22 -98.8805 1292.47 -10.9183 1235.28 37.7191C1178.1 86.3565 1041.52 31.3533 1056.79 -45.0279Z" stroke="#F5F5F5" stroke-width="43.148" stroke-linecap="round" stroke-linejoin="round"/>
<path d="M461.622 1491.82C505.583 1481.79 612.608 1431 689.025 1308.01C765.443 1185.02 854.239 1163 889.085 1167.36" stroke="#F5F5F5" stroke-width="43.148" stroke-linecap="round" stroke-linejoin="round"/>
<path d="M419.813 1627.19C482.77 1627.09 636.871 1590.19 749.614 1443.41C890.543 1259.95 998.791 1122.04 1278.69 1238.82" stroke="#F5F5F5" stroke-width="43.148" stroke-linecap="round" stroke-linejoin="round"/>
<path d="M250.714 1478.44C300.56 1330.37 396.743 1090.81 649.484 1008.38C902.225 925.954 1145.17 1058.24 1235.05 1134.68" stroke="#F5F5F5" stroke-width="43.148" stroke-linecap="round" stroke-linejoin="round"/>
<path d="M706.698 1136.86C713.751 1121.76 762.216 1085.73 797.533 1079.31" stroke="#F5F5F5" stroke-width="43.148" stroke-linecap="round" stroke-linejoin="round"/>
<path d="M852.572 38.3725C870.575 43.4909 964.944 128.695 918.369 219.973" stroke="#F5F5F5" stroke-width="43.148" stroke-linecap="round" stroke-linejoin="round"/>
<path d="M35.1699 159.423C6.78272 195.867 -24.1087 248.609 -128.029 262.694" stroke="#F5F5F5" stroke-width="43.148" stroke-linecap="round" stroke-linejoin="round"/>
<path d="M490.531 1346.44C528.587 1329.91 574.534 1319.58 652.669 1193.14" stroke="#F5F5F5" stroke-width="43.148" stroke-linecap="round" stroke-linejoin="round"/>
<path d="M618.355 923.949C672.88 892.661 825.89 847.961 1001.73 919.469C1177.56 990.976 1251.29 908.487 1269.77 849.171C1256.98 918.338 1253.29 1049.08 1340.82 1018.72" stroke="#F5F5F5" stroke-width="43.148" stroke-linecap="round" stroke-linejoin="round"/>
<path d="M963.335 817.692C1032.93 797.206 1073.83 669.075 1136.77 669.075C1208.04 669.075 1068.77 827.22 1136.77 836.977C1221.75 849.171 1304.57 563.269 1366.49 639.247C1404.68 686.106 1300.26 789.983 1379.82 825.979C1431.43 849.334 1543.39 775.257 1582.7 662.228" stroke="#F5F5F5" stroke-width="43.148" stroke-linecap="round" stroke-linejoin="round"/>
<path d="M1304.58 52.8096C1263.03 217.429 1433.74 172.78 1433.74 349.687" stroke="#F5F5F5" stroke-width="43.148" stroke-linecap="round" stroke-linejoin="round"/>
<path d="M1396.78 128.225C1419.86 165.088 1457.77 207.535 1544.52 202.045" stroke="#F5F5F5" stroke-width="43.148" stroke-linecap="round" stroke-linejoin="round"/>
<path d="M587.76 1146.05C514.478 1203.76 466.521 1236.28 378.023 1402.4C297.53 1553.5 299.686 1717.33 391.061 1742.9C482.436 1768.47 505.479 1722.82 546.019 1703.6C586.559 1684.37 650.712 1677.17 674.713 1756.03" stroke="#F5F5F5" stroke-width="43.148" stroke-linecap="round" stroke-linejoin="round"/>
<path d="M-12.4941 -325.186C13.5199 -414.424 145.577 -464.865 234.06 -353.08C449.203 -81.2816 96.1845 321.094 299.324 507.27" stroke="#F5F5F5" stroke-width="43.148" stroke-linecap="round" stroke-linejoin="round"/>
<path d="M-370.554 2162.32C-255.033 2253.92 -69.5908 2277.18 60.6036 2162.32C184.405 2053.09 135.81 1899.64 101.969 1742.05C79.6112 1637.94 91.2432 1466.55 84.8142 1393.96C71.6716 1245.57 -28.1304 1217.9 -89.8508 1265.74C-151.571 1313.57 -248.185 1405.69 -303.808 1731.55C-316.409 1811.97 -335.558 1914.57 -277.826 1932.37C-220.326 1950.1 -119.399 1924.78 -100.17 1752.37" stroke="#F5F5F5" stroke-width="43.148" stroke-linecap="round" stroke-linejoin="round"/>
<path d="M-370.554 286.314C-255.033 377.919 -69.5908 401.181 60.6036 286.314C184.405 177.088 135.81 23.6432 101.969 -133.947C79.6112 -238.065 91.2432 -409.45 84.8142 -482.04C71.6716 -630.43 -28.1304 -658.102 -89.8508 -610.264C-151.571 -562.426 -248.185 -470.315 -303.808 -144.453C-316.409 -64.0355 -335.558 38.5722 -277.826 56.3721C-220.326 74.1003 -119.399 48.7756 -100.17 -123.629" stroke="#F5F5F5" stroke-width="43.148" stroke-linecap="round" stroke-linejoin="round"/>
<path d="M-257.659 2056.28C32.6515 2087.89 -13.4032 1827.32 -13.4032 1756.12C-13.4032 1684.93 -9.65208 1519.93 -0.928911 1444.71C7.79426 1369.48 -67.6219 1322.95 -127.185 1469.85C-186.748 1616.74 -183.463 1761.28 -218.075 1813.25" stroke="#F5F5F5" stroke-width="43.148" stroke-linecap="round" stroke-linejoin="round"/>
<path d="M-257.659 180.283C32.6515 211.893 -13.4032 -48.683 -13.4032 -119.877C-13.4032 -191.071 -9.65208 -356.066 -0.928911 -431.293C7.79426 -506.521 -67.6219 -553.045 -127.185 -406.155C-186.748 -259.264 -183.463 -114.718 -218.075 -62.7531" stroke="#F5F5F5" stroke-width="43.148" stroke-linecap="round" stroke-linejoin="round"/>
<path d="M1505.45 2162.32C1620.97 2253.92 1778.64 2340.97 1949.64 2201.77C2046.27 2123.11 1998.1 2103.42 1960.81 1762.13C1943.02 1599.29 1960.81 1466.84 1960.81 1393.96C1960.81 1262.45 1847.87 1217.9 1786.15 1265.74C1724.43 1313.58 1627.81 1405.69 1572.19 1731.55C1559.59 1811.97 1540.44 1914.57 1598.17 1932.37C1655.67 1950.1 1729.96 1934.53 1749.19 1762.13" stroke="#F5F5F5" stroke-width="43.148" stroke-linecap="round" stroke-linejoin="round"/>
<path d="M1618.34 2056.28C1958.93 2227.28 1845.9 1889.7 1862.6 1756.12C1879.29 1622.55 1885.39 1530.53 1894.11 1455.31C1902.84 1380.08 1845.24 1350.11 1775.74 1416.47C1706.23 1482.84 1692.54 1761.28 1657.92 1813.25" stroke="#F5F5F5" stroke-width="43.148" stroke-linecap="round" stroke-linejoin="round"/>
<path d="M1505.45 286.316C1620.97 377.92 1778.64 464.967 1949.64 325.768C2046.27 247.111 1998.1 227.424 1960.81 -113.873C1943.02 -276.71 1960.81 -409.164 1960.81 -482.038C1960.81 -613.546 1847.87 -658.101 1786.15 -610.263C1724.43 -562.425 1627.81 -470.313 1572.19 -144.452C1559.59 -64.034 1540.44 38.5738 1598.17 56.3736C1655.67 74.1018 1729.96 58.531 1749.19 -113.873" stroke="#F5F5F5" stroke-width="43.148" stroke-linecap="round" stroke-linejoin="round"/>
<path d="M1618.34 180.284C1958.93 351.281 1845.9 13.6948 1862.6 -119.876C1879.29 -253.448 1885.39 -345.466 1894.11 -420.693C1902.84 -495.921 1845.24 -525.89 1775.74 -459.526C1706.23 -393.163 1692.54 -114.718 1657.92 -62.7524" stroke="#F5F5F5" stroke-width="43.148" stroke-linecap="round" stroke-linejoin="round"/>
<path d="M-195.095 604.541C-251.122 593.824 -322.944 550.367 -322.944 473.034C-322.944 420.735 -240.223 466.049 -153.635 473.034C-42.013 482.039 94.0903 429.604 153.653 332.803" stroke="#F5F5F5" stroke-width="43.148" stroke-linecap="round" stroke-linejoin="round"/>
<circle cx="975.904" cy="1111.62" r="25.2322" fill="#F5F5F5"/>
<circle cx="1366.11" cy="1270.9" r="25.2322" fill="#F5F5F5"/>
<circle cx="1165.57" cy="-16.2275" r="25.2322" fill="#F5F5F5"/>
<circle cx="574.628" cy="276.616" r="25.2322" fill="#F5F5F5"/>
<circle cx="296.229" cy="713.724" r="25.2322" fill="#F5F5F5"/>
<circle cx="19.1433" cy="1167.9" r="25.2322" fill="#F5F5F5"/>
<circle cx="645.54" cy="824.22" r="25.2322" fill="#F5F5F5"/>
<circle cx="1430.46" cy="418.63" r="25.2322" fill="#F5F5F5"/>
<circle cx="873.099" cy="290.123" r="25.2322" fill="#F5F5F5"/>
</g>
<defs>
<clipPath id="clip0_319_4159">
<rect x="-192" width="1876" height="1419" rx="75.04" fill="white"/>
</clipPath>
</defs>
</svg>
