<svg width="32" height="32" viewBox="0 0 32 32" fill="none" xmlns="http://www.w3.org/2000/svg">
<path d="M16.0271 27.3733C12.9205 27.3733 9.81381 26.88 6.86714 25.8933C5.74714 25.5066 4.89381 24.72 4.52048 23.6933C4.13381 22.6666 4.26714 21.5333 4.88048 20.52L6.41381 17.9733C6.73381 17.44 7.02714 16.3733 7.02714 15.7466V11.8933C7.02714 6.93331 11.0671 2.89331 16.0271 2.89331C20.9871 2.89331 25.0271 6.93331 25.0271 11.8933V15.7466C25.0271 16.36 25.3205 17.44 25.6405 17.9866L27.1605 20.52C27.7338 21.48 27.8405 22.64 27.4538 23.6933C27.0671 24.7466 26.2271 25.5466 25.1738 25.8933C22.2405 26.88 19.1338 27.3733 16.0271 27.3733ZM16.0271 4.89331C12.1738 4.89331 9.02714 8.02664 9.02714 11.8933V15.7466C9.02714 16.72 8.62714 18.16 8.13381 19L6.60048 21.5466C6.30714 22.04 6.22714 22.56 6.40048 23C6.56048 23.4533 6.96048 23.8 7.50714 23.9866C13.0805 25.8533 18.9871 25.8533 24.5605 23.9866C25.0405 23.8266 25.4138 23.4666 25.5871 22.9866C25.7605 22.5066 25.7205 21.9866 25.4538 21.5466L23.9205 19C23.4138 18.1333 23.0271 16.7066 23.0271 15.7333V11.8933C23.0271 8.02664 19.8938 4.89331 16.0271 4.89331Z" fill="#7B7B7B"/>
<path d="M18.5071 5.25336C18.4138 5.25336 18.3205 5.24003 18.2271 5.21336C17.8405 5.1067 17.4671 5.0267 17.1071 4.97336C15.9738 4.8267 14.8805 4.9067 13.8538 5.21336C13.4805 5.33336 13.0805 5.21336 12.8271 4.93336C12.5738 4.65336 12.4938 4.25336 12.6405 3.89336C13.1871 2.49336 14.5205 1.57336 16.0405 1.57336C17.5605 1.57336 18.8938 2.48003 19.4405 3.89336C19.5738 4.25336 19.5071 4.65336 19.2538 4.93336C19.0538 5.1467 18.7738 5.25336 18.5071 5.25336Z" fill="#7B7B7B"/>
<path d="M16.0264 30.4133C14.7064 30.4133 13.4264 29.88 12.493 28.9467C11.5597 28.0133 11.0264 26.7333 11.0264 25.4133H13.0264C13.0264 26.2 13.3464 26.9733 13.9064 27.5333C14.4664 28.0933 15.2397 28.4133 16.0264 28.4133C17.6797 28.4133 19.0264 27.0667 19.0264 25.4133H21.0264C21.0264 28.1733 18.7864 30.4133 16.0264 30.4133Z" fill="#7B7B7B"/>
</svg>
