<svg width="32" height="32" viewBox="0 0 32 32" fill="none" xmlns="http://www.w3.org/2000/svg">
<path d="M20.0003 30.3333H12.0003C4.76033 30.3333 1.66699 27.24 1.66699 20V12C1.66699 4.75996 4.76033 1.66663 12.0003 1.66663H20.0003C27.2403 1.66663 30.3337 4.75996 30.3337 12V20C30.3337 27.24 27.2403 30.3333 20.0003 30.3333ZM12.0003 3.66663C5.85366 3.66663 3.66699 5.85329 3.66699 12V20C3.66699 26.1466 5.85366 28.3333 12.0003 28.3333H20.0003C26.147 28.3333 28.3337 26.1466 28.3337 20V12C28.3337 5.85329 26.147 3.66663 20.0003 3.66663H12.0003Z" fill="#7B7B7B"/>
<path d="M14.1069 20.7733C13.8402 20.7733 13.5869 20.6667 13.4002 20.48L9.62691 16.7067C9.24025 16.32 9.24025 15.68 9.62691 15.2933C10.0136 14.9067 10.6536 14.9067 11.0402 15.2933L14.1069 18.36L20.9602 11.5067C21.3469 11.12 21.9869 11.12 22.3736 11.5067C22.7602 11.8933 22.7602 12.5333 22.3736 12.92L14.8136 20.48C14.6269 20.6667 14.3736 20.7733 14.1069 20.7733Z" fill="#7B7B7B"/>
</svg>
